<?xml version="1.0" standalone="no"?>
<!DOCTYPE svg PUBLIC "-//W3C//DTD SVG 20010904//EN"
 "http://www.w3.org/TR/2001/REC-SVG-20010904/DTD/svg10.dtd">
<svg version="1.0" xmlns="http://www.w3.org/2000/svg"
 width="80.000000pt" height="80.000000pt" viewBox="0 0 80.000000 80.000000"
 preserveAspectRatio="xMidYMid meet">
<metadata>
Created by potrace 1.11, written by Peter Selinger 2001-2013
</metadata>
<g transform="translate(0.000000,80.000000) scale(0.100000,-0.100000)"
fill="#000000" stroke="none">
<path d="M631 769 c-16 -6 -21 -14 -17 -26 5 -13 -35 -93 -47 -93 -2 0 -23 9
-46 21 -43 20 -127 28 -183 16 -99 -20 -200 -103 -243 -198 -52 -117 -43 -267
22 -351 35 -46 162 -118 222 -127 157 -23 348 88 393 230 38 116 5 262 -77
341 l-38 37 30 47 c21 32 30 55 26 73 -6 35 -14 41 -42 30z"/>
</g>
</svg>
